<!DOCTYPE svg PUBLIC "-//W3C//DTD SVG 20010904//EN" "http://www.w3.org/TR/2001/REC-SVG-20010904/DTD/svg10.dtd">
<svg version="1.0" xmlns="http://www.w3.org/2000/svg" width="28px" height="28px" viewBox="0 0 5860 5850" preserveAspectRatio="xMidYMid meet">
<g id="layer101" fill="#d4ac6b" stroke="none">
 <path d="M340 5820 c-84 -47 -264 -230 -303 -310 -30 -60 -32 -72 -32 -170 0 -154 19 -189 227 -422 432 -483 1904 -2127 1931 -2156 l31 -32 -249 -243 c-431 -419 -610 -568 -915 -759 -184 -115 -267 -155 -356 -171 -314 -58 -555 -281 -636 -587 -27 -103 -27 -267 1 -371 21 -82 89 -227 121 -259 23 -23 87 -27 113 -8 9 7 84 123 165 258 l149 245 54 -3 c95 -5 213 -78 261 -159 l17 -30 -144 -258 c-95 -169 -145 -268 -145 -287 0 -19 10 -40 29 -59 29 -29 31 -29 143 -29 216 0 388 70 539 220 131 129 210 286 225 442 7 73 47 154 178 363 177 283 346 486 699 841 l269 272 56 -62 c31 -34 132 -145 224 -248 92 -103 180 -193 195 -200 39 -18 97 -135 113 -227 17 -94 3 -190 -41 -280 -59 -121 -285 -319 -464 -407 -158 -78 -319 -104 -642 -104 -94 0 -183 -4 -198 -10 -52 -20 -68 -116 -26 -154 41 -37 463 -201 657 -256 449 -126 807 -127 1176 -4 137 45 382 168 473 235 82 62 640 611 695 685 87 116 150 302 150 444 0 76 12 110 53 148 l25 24 45 -26 c50 -30 118 -35 170 -12 18 7 127 110 243 227 242 245 250 258 242 381 -3 41 -13 88 -22 108 -24 47 -790 816 -841 843 -61 33 -183 31 -250 -5 -70 -37 -426 -396 -454 -458 -33 -72 -25 -148 20 -196 l20 -21 -45 -30 c-41 -27 -54 -30 -158 -36 -122 -6 -202 -24 -286 -62 l-52 -24 -44 47 c-24 26 -109 121 -190 212 l-147 164 353 354 c437 438 558 541 978 834 326 227 373 256 426 263 317 43 555 238 661 540 25 74 27 92 28 235 0 136 -3 164 -23 226 -31 92 -90 202 -123 227 -30 22 -90 27 -113 8 -8 -7 -79 -123 -158 -258 l-142 -245 -61 4 c-100 8 -216 81 -260 161 l-18 35 146 247 c160 268 167 290 123 338 -33 35 -61 41 -180 34 -277 -16 -502 -154 -643 -395 -35 -60 -79 -193 -88 -267 -8 -64 -32 -103 -259 -430 -298 -430 -428 -584 -843 -997 l-328 -328 -475 533 c-1634 1829 -1618 1812 -1677 1847 l-57 35 -141 3 c-140 2 -140 2 -195 -28z m277 -177 c26 -13 208 -210 593 -640 1303 -1456 1547 -1730 1584 -1778 63 -80 353 -406 406 -455 26 -25 134 -142 239 -260 l191 -214 -202 -203 c-112 -112 -206 -202 -209 -201 -3 2 -559 622 -1234 1378 -675 756 -1239 1387 -1253 1403 l-26 27 97 99 c114 115 121 139 63 197 -58 58 -82 50 -193 -58 l-95 -93 -63 70 -63 70 84 87 c52 54 84 96 85 110 2 46 -3 64 -29 91 -20 20 -35 27 -65 27 -36 0 -47 -7 -123 -82 l-84 -82 -31 30 c-62 60 -89 112 -89 176 0 38 7 72 19 96 24 47 203 209 245 222 43 13 108 6 153 -17z m4335 -35 c-11 -18 -63 -109 -117 -201 l-97 -169 22 -56 c63 -167 213 -297 386 -338 93 -21 234 -16 262 9 11 10 67 99 124 197 73 127 105 174 111 164 5 -8 11 -54 14 -103 19 -293 -178 -556 -462 -616 -189 -40 -364 11 -509 146 -116 109 -170 219 -187 382 -12 114 5 199 62 308 50 95 117 173 197 225 57 38 161 82 195 83 18 1 18 0 -1 -31z m-558 -893 c81 -162 191 -270 359 -355 l77 -39 -133 -90 c-409 -276 -566 -409 -1022 -862 l-390 -387 -132 147 -131 148 295 294 c162 162 344 349 405 417 l111 122 48 -45 c55 -51 87 -62 130 -45 40 17 59 47 59 93 0 33 -8 47 -56 97 l-56 59 57 76 56 77 69 -66 c60 -58 73 -66 107 -66 46 0 76 19 93 59 19 47 5 79 -76 161 l-74 76 78 111 c42 61 78 110 79 109 1 -1 22 -42 47 -91z m893 -2017 c253 -253 374 -381 378 -399 4 -16 0 -39 -9 -56 -8 -15 -90 -103 -183 -195 l-168 -168 -49 25 c-124 63 -258 -1 -336 -160 -24 -51 -30 -77 -35 -170 -16 -265 -12 -258 -408 -652 -225 -223 -344 -334 -396 -368 -139 -91 -374 -184 -571 -226 -141 -30 -431 -33 -593 -6 -114 19 -316 67 -380 89 l-39 14 78 13 c232 39 461 165 684 378 103 97 159 180 197 290 24 68 27 94 28 198 0 106 -3 130 -29 207 -15 48 -47 116 -71 152 l-42 65 236 234 c130 129 257 246 284 262 73 42 130 55 274 65 153 9 211 30 288 101 57 53 80 97 89 169 6 46 3 62 -17 102 l-24 47 182 180 c173 173 183 181 220 181 38 0 49 -10 412 -372z m-2833 -260 l126 -141 -253 -256 c-348 -353 -534 -575 -712 -851 -38 -58 -71 -109 -75 -113 -4 -5 -20 17 -34 48 -65 144 -192 275 -337 350 l-90 46 117 75 c273 174 468 339 844 711 151 150 278 273 281 273 4 0 63 -64 133 -142z m-1472 -1101 c233 -85 376 -274 394 -521 8 -103 -12 -191 -66 -295 -53 -101 -105 -160 -196 -220 -61 -42 -199 -99 -210 -88 -1 1 49 91 112 199 63 108 114 204 114 212 0 28 -60 144 -100 195 -53 66 -155 138 -243 169 -56 20 -96 27 -182 30 -100 4 -112 2 -136 -17 -15 -11 -73 -100 -129 -197 -120 -206 -124 -206 -124 -19 0 93 5 121 27 183 36 103 82 174 157 245 73 70 168 121 263 143 91 20 234 12 319 -19z"/>
 </g>
<g id="layer102" fill="#e3b873" stroke="none">
 <path d="M340 5819 c-76 -41 -120 -86 -120 -121 l0 -28 100 0 100 0 0 90 c0 65 -3 90 -12 90 -7 0 -38 -14 -68 -31z"/>
 <path d="M430 5760 c0 -101 -10 -92 95 -92 117 0 105 -10 105 92 l0 90 -100 0 -100 0 0 -90z"/>
 <path d="M640 5761 l0 -91 100 0 100 0 0 29 c0 20 -10 38 -35 59 -38 34 -108 76 -142 87 -23 6 -23 5 -23 -84z"/>
 <path d="M4970 5843 c-67 -11 -177 -46 -233 -74 -78 -40 -150 -89 -142 -97 3 -4 10 0 15 8 7 10 10 11 10 3 0 -10 27 -13 100 -13 l99 0 4 68 3 67 2 -67 2 -68 100 0 99 0 4 88 3 87 2 -87 2 -87 88 -4 87 -3 -87 -2 -88 -2 0 -100 0 -100 28 0 c24 0 35 13 102 127 57 98 74 136 73 163 -2 81 -34 101 -160 99 -48 -1 -99 -4 -113 -6z"/>
 <path d="M185 5690 c-18 -19 -17 -20 3 -20 15 0 22 6 22 20 0 11 -2 20 -3 20 -2 0 -12 -9 -22 -20z"/>
 <path d="M850 5686 c0 -8 8 -17 18 -19 16 -4 16 -5 0 -6 -16 -1 -18 -13 -18 -102 l0 -100 106 2 107 2 -2 -107 -2 -106 101 0 100 0 -201 225 c-111 124 -203 225 -205 225 -2 0 -4 -6 -4 -14z"/>
 <path d="M106 5610 c-74 -79 -98 -141 -99 -258 l-2 -97 108 -3 c107 -3 108 -3 97 19 -11 19 -10 123 0 159 4 12 -12 16 -95 21 l-100 5 98 2 97 2 0 100 0 100 -29 0 c-21 0 -40 -13 -75 -50z"/>
 <path d="M220 5556 l0 -103 43 41 c23 22 68 65 100 94 31 29 57 57 57 63 0 5 -44 9 -100 9 l-100 0 0 -104z"/>
 <path d="M433 5653 c4 -3 10 -3 14 0 3 4 0 7 -7 7 -7 0 -10 -3 -7 -7z"/>
 <path d="M618 5643 c18 -9 68 -54 109 -100 43 -46 84 -83 95 -83 16 0 18 10 18 100 l0 100 -99 0 c-70 0 -101 -4 -104 -12 -4 -10 -6 -10 -6 0 -1 6 -11 12 -23 12 -20 0 -18 -3 10 -17z"/>
 <path d="M4520 5613 c-23 -27 -59 -73 -79 -103 l-36 -55 3 -102 3 -103 54 0 55 0 31 63 c17 34 40 73 50 88 28 40 13 48 -96 52 l-100 3 103 2 102 2 0 100 c0 99 0 100 -24 100 -16 0 -38 -16 -66 -47z"/>
 <path d="M4620 5560 c0 -66 4 -100 11 -100 6 0 34 20 61 45 27 25 68 55 89 67 33 18 39 27 39 55 l0 33 -100 0 -100 0 0 -100z"/>
 <path d="M4830 5631 l0 -30 57 20 c32 11 63 18 70 17 6 -2 -18 -54 -60 -126 l-72 -123 3 -69 4 -69 66 -3 67 -3 35 57 c29 48 35 65 32 102 l-4 45 -81 4 -82 3 83 2 82 2 0 100 0 100 -100 0 -100 0 0 -29z"/>
 <path d="M5610 5537 c-35 -18 -158 -230 -152 -263 4 -24 6 -24 103 -24 l99 0 0 100 0 99 -57 4 -58 3 58 2 58 2 -3 42 c-3 47 -12 53 -48 35z"/>
 <path d="M5670 5500 l0 -40 46 0 45 0 -21 30 c-19 27 -49 50 -64 50 -3 0 -6 -18 -6 -40z"/>
 <path d="M820 5445 c0 -6 222 -255 227 -255 2 0 3 11 3 24 0 19 -6 26 -27 29 l-28 4 28 2 27 1 0 100 0 100 -99 0 c-86 0 -100 -2 -104 -17 -4 -17 -5 -17 -6 0 -1 15 -21 26 -21 12z"/>
 <path d="M5040 5415 c0 -19 2 -35 4 -35 2 0 13 16 25 35 l20 35 -24 0 c-22 0 -25 -4 -25 -35z"/>
 <path d="M5670 5350 l0 -99 88 -4 87 -3 -87 -2 -88 -2 0 -100 0 -100 96 0 97 0 -6 98 c-6 103 -20 156 -63 253 l-27 59 -48 0 -49 0 0 -100z"/>
 <path d="M4375 5398 c-30 -72 -54 -158 -61 -217 -4 -37 -17 -70 -36 -98 l-29 -43 76 0 75 0 0 99 0 100 -37 4 -38 4 38 1 37 2 0 95 c0 52 -2 95 -4 95 -2 0 -12 -19 -21 -42z"/>
 <path d="M4776 5304 l-38 -66 22 -57 c11 -31 30 -70 40 -86 l20 -30 0 87 0 87 -37 4 -38 4 38 1 37 2 0 60 c0 33 -1 60 -3 60 -1 0 -20 -30 -41 -66z"/>
 <path d="M464 5278 l-29 -23 90 -6 90 -5 -92 -2 -93 -2 0 -99 0 -100 33 -4 32 -4 -32 -1 -33 -2 0 -100 0 -100 100 0 100 0 0 32 0 31 -26 -24 -26 -24 -63 70 -63 70 84 87 c52 54 84 96 85 110 2 46 -3 64 -29 91 -33 35 -87 37 -128 5z"/>
 <path d="M5377 5168 c-37 -63 -67 -118 -67 -122 0 -3 32 -6 70 -6 l70 0 0 100 c0 73 -3 100 -12 100 -10 0 -9 3 1 9 7 5 12 14 9 21 -2 8 -34 -39 -71 -102z"/>
 <path d="M16 5218 c12 -41 52 -114 79 -147 23 -26 34 -31 71 -31 l44 0 0 100 0 100 -101 0 c-99 0 -100 0 -93 -22z"/>
 <path d="M220 5142 l0 -102 100 0 100 0 0 97 0 97 -51 -49 -51 -50 -49 54 -49 55 0 -102z"/>
 <path d="M1060 5206 c0 -31 19 -55 153 -205 l152 -171 48 0 47 0 0 100 0 100 -94 0 -95 0 -4 -42 -4 -43 -1 42 c-2 41 -3 42 -39 46 l-38 4 38 1 37 2 0 100 0 100 -100 0 -100 0 0 -34z"/>
 <path d="M4410 5141 l0 -100 43 -4 42 -4 -42 -1 -43 -2 0 -100 0 -100 65 0 c36 0 65 3 65 8 0 4 -7 27 -16 52 -26 74 -36 215 -21 288 l14 62 -54 0 -53 0 0 -99z"/>
 <path d="M4830 5141 l0 -99 63 -58 c74 -70 160 -118 248 -139 105 -24 99 -29 99 84 0 115 7 108 -122 103 l-77 -4 -4 -71 -3 -72 -2 72 -2 72 -92 4 -93 3 93 2 92 2 0 40 c0 30 -9 51 -35 86 -19 25 -35 52 -35 60 0 11 -15 14 -65 14 l-65 0 0 -99z"/>
 <path d="M5460 5140 l0 -100 33 0 c31 0 36 5 88 94 29 52 56 93 58 90 2 -2 7 -21 11 -41 l8 -38 1 48 1 47 -100 0 -100 0 0 -100z"/>
 <path d="M1270 5138 l0 -98 86 0 85 0 -20 28 c-11 15 -50 59 -85 97 l-65 70 -1 -97z"/>
 <path d="M5040 5075 l0 -35 62 0 c34 0 59 1 57 3 -2 2 -30 18 -61 35 l-58 32 0 -35z"/>
 <path d="M149 5013 c5 -10 21 -29 35 -42 l26 -24 0 41 c0 41 -1 42 -35 42 -31 0 -34 -2 -26 -17z"/>
 <path d="M220 4980 l0 -50 181 -203 c100 -111 193 -213 205 -227 l24 -25 0 67 0 67 -62 4 -63 3 63 2 62 2 0 100 0 100 -100 0 -99 0 -4 -57 -3 -58 -2 57 -2 57 -52 4 -53 3 53 2 52 2 0 100 0 100 -100 0 -100 0 0 -50z"/>
 <path d="M704 4968 c-57 -54 -64 -65 -64 -100 l0 -38 100 0 100 0 2 93 2 92 5 -85 6 -85 23 29 c32 42 29 81 -12 122 -53 53 -83 48 -162 -28z"/>
 <path d="M4219 4993 c-20 -32 -23 -49 -21 -100 l3 -63 99 0 100 0 0 100 0 100 -79 0 -78 0 -24 -37z"/>
 <path d="M5250 4930 l0 -100 58 0 c104 0 149 46 144 143 l-4 57 -99 0 -99 0 0 -100z"/>
 <path d="M5460 4983 c0 -50 4 -49 39 10 l23 37 -31 0 c-30 0 -31 -1 -31 -47z"/>
 <path d="M5670 4930 l0 -100 79 0 79 0 11 43 c6 24 13 69 17 100 l7 57 -97 0 -96 0 0 -100z"/>
 <path d="M1470 4923 l0 -92 83 -4 82 -3 -82 -2 -83 -2 0 -54 c0 -48 4 -58 41 -100 40 -45 42 -46 99 -46 l59 0 3 83 3 82 -89 100 c-49 55 -95 107 -102 115 -12 12 -14 0 -14 -77z"/>
 <path d="M5650 4971 c0 -11 -9 -47 -19 -80 l-19 -61 24 0 c23 0 24 2 24 80 0 44 -2 80 -5 80 -3 0 -5 -9 -5 -19z"/>
 <path d="M4087 4800 c-53 -77 -97 -149 -97 -160 0 -19 7 -20 100 -20 l100 0 0 99 0 100 -42 4 -43 4 43 1 42 2 0 55 c0 30 -1 55 -3 55 -2 0 -47 -63 -100 -140z"/>
 <path d="M4478 4822 l-68 -3 0 -70 c0 -49 5 -80 17 -100 17 -28 19 -29 100 -29 l83 0 0 49 c0 37 -8 61 -32 102 l-33 54 -67 -3z"/>
 <path d="M640 4720 l0 -100 65 0 c36 0 65 2 65 5 0 2 -14 20 -32 40 l-31 36 59 60 58 59 -92 0 -92 0 0 -100z"/>
 <path d="M1410 4780 c45 -56 50 -57 50 -6 l0 46 -41 0 -41 0 32 -40z"/>
 <path d="M4200 4720 c0 -55 3 -100 8 -100 4 0 37 43 74 96 l66 95 25 -53 25 -53 1 58 1 57 -100 0 -100 0 0 -100z"/>
 <path d="M5582 4776 c-13 -24 -46 -69 -74 -100 l-50 -56 101 0 101 0 0 100 0 100 -28 0 c-22 0 -31 -8 -50 -44z"/>
 <path d="M5670 4721 c0 -95 1 -100 23 -104 22 -4 22 -4 0 -6 -16 -1 -23 -9 -26 -28 l-4 -28 -2 28 -1 27 -100 0 -100 0 0 -99 c0 -122 7 -127 89 -65 105 78 194 192 247 311 13 29 24 56 24 58 0 3 -34 5 -75 5 l-75 0 0 -99z"/>
 <path d="M1680 4695 l0 -74 73 -4 72 -3 -72 -2 -72 -2 -4 -62 -3 -63 -2 63 -2 62 -50 0 c-27 0 -50 -2 -50 -5 0 -5 231 -266 286 -325 l24 -25 0 72 0 72 -67 4 -68 3 68 2 67 2 0 73 0 72 -96 108 c-52 59 -97 107 -100 107 -2 0 -4 -34 -4 -75z"/>
 <path d="M4620 4660 l0 -40 42 0 42 0 -39 40 c-21 22 -40 40 -42 40 -2 0 -3 -18 -3 -40z"/>
 <path d="M3970 4630 c0 -7 3 -10 7 -7 3 4 3 10 0 14 -4 3 -7 0 -7 -7z"/>
 <path d="M640 4536 l0 -74 96 -106 c52 -58 97 -106 100 -106 2 0 4 34 4 75 l0 74 -72 4 -73 3 72 2 71 2 4 71 c3 67 2 71 -27 100 -28 27 -37 29 -103 29 l-72 0 0 -74z"/>
 <path d="M3865 4488 l-90 -123 3 -82 3 -83 99 0 c85 0 99 2 103 18 4 15 5 15 6 0 0 -9 9 -19 19 -21 16 -4 16 -5 0 -6 -15 -1 -18 -14 -21 -88 l-3 -88 -2 88 -2 87 -100 0 -100 0 0 -67 0 -67 28 27 28 27 38 -39 c67 -68 121 -77 172 -26 18 18 24 35 24 65 0 37 -7 48 -57 101 -49 52 -55 62 -42 74 9 10 13 30 11 64 l-4 50 -86 4 -87 3 88 2 87 2 0 100 c0 74 -3 100 -13 100 -6 0 -53 -55 -102 -122z"/>
 <path d="M3990 4510 l0 -102 45 3 c24 2 46 1 49 -2 2 -2 27 -2 55 -1 l51 4 1 79 c1 43 2 87 3 97 1 15 -11 17 -101 20 l-103 3 0 -101z"/>
 <path d="M4460 4604 c0 -17 89 -109 145 -151 l64 -48 75 3 76 4 0 69 c0 38 -4 69 -8 69 -5 0 -29 13 -53 30 -33 22 -56 30 -91 30 l-47 0 -4 -82 -3 -83 -2 83 -2 82 -75 0 c-41 0 -75 -3 -75 -6z"/>
 <path d="M5386 4574 c-26 -19 -69 -41 -95 -50 l-46 -17 3 -48 4 -49 99 0 99 0 0 100 c0 55 -3 100 -7 99 -5 -1 -30 -16 -57 -35z"/>
 <path d="M4200 4493 l0 -82 73 -4 72 -3 -72 -2 -72 -2 -4 -47 -3 -48 -2 48 -2 47 -47 0 -48 0 57 -55 c50 -49 61 -55 98 -55 69 0 116 67 91 128 -7 16 -41 57 -77 92 l-64 64 0 -81z"/>
 <path d="M1890 4478 l0 -67 63 -4 62 -3 -62 -2 -63 -2 0 -78 0 -79 186 -209 c102 -115 195 -218 205 -229 19 -19 19 -18 19 77 l0 97 -87 4 -88 3 87 2 87 2 4 43 4 42 1 -42 c2 -42 2 -43 39 -43 l36 0 -19 22 c-10 13 -50 58 -88 100 l-70 78 -53 0 -52 0 -4 -87 -3 -88 -2 87 -2 87 -77 4 -78 3 77 2 77 2 3 58 3 57 -84 95 c-47 52 -93 104 -103 115 -18 19 -18 18 -18 -47z"/>
 <path d="M850 4472 l0 -62 56 0 56 0 -30 38 c-17 20 -42 48 -56 61 l-26 24 0 -61z"/>
 <path d="M4830 4471 l0 -61 100 0 100 0 0 35 c0 30 -4 35 -27 40 -29 6 -124 31 -155 42 -16 5 -18 -2 -18 -56z"/>
 <path d="M5165 4489 c-22 -4 -59 -8 -82 -8 -42 -1 -43 -2 -43 -36 l0 -35 100 0 100 0 0 45 c0 50 -1 50 -75 34z"/>
 <path d="M848 4314 c-4 -110 0 -114 115 -114 l86 0 4 53 3 52 2 -52 2 -52 48 -4 47 -3 -47 -2 -48 -2 0 -100 0 -100 99 0 100 0 3 43 c3 41 1 44 -142 204 l-145 163 -62 0 -62 0 -3 -86z"/>
 <path d="M3990 4358 l0 -43 21 25 c41 52 43 60 9 60 -29 0 -30 -2 -30 -42z"/>
 <path d="M4690 4395 c0 -5 115 -65 125 -65 3 0 5 16 5 35 l0 35 -65 0 c-36 0 -65 -2 -65 -5z"/>
 <path d="M4828 4358 c-2 -24 -1 -69 0 -100 l4 -57 71 -3 c71 -3 73 -2 143 44 55 36 85 49 130 55 l59 8 3 48 3 47 -100 0 -100 0 -4 -82 -3 -83 -2 83 -2 82 -99 0 -100 0 -3 -42z"/>
 <path d="M5250 4355 c0 -44 1 -45 28 -39 37 9 175 63 185 73 5 5 -41 9 -102 10 l-111 2 0 -46z"/>
 <path d="M3701 4275 l-61 -75 65 0 65 0 0 75 c0 41 -2 75 -4 75 -2 0 -31 -34 -65 -75z"/>
 <path d="M4736 4257 l-80 -52 78 -3 c43 -2 80 -1 83 1 2 3 3 28 1 56 l-3 51 -79 -53z"/>
 <path d="M2100 4252 l0 -52 45 0 c41 0 45 2 36 18 -5 9 -25 33 -45 51 l-36 35 0 -52z"/>
 <path d="M4526 4112 c-79 -57 -116 -89 -116 -103 0 -17 8 -19 100 -19 l99 0 4 93 3 92 2 -92 2 -93 30 0 c20 0 55 17 100 48 l69 47 1 52 0 52 -89 3 -90 3 -115 -83z"/>
 <path d="M907 4167 c10 -13 46 -54 81 -92 l62 -70 0 93 0 92 -81 0 -80 0 18 -23z"/>
 <path d="M3601 4155 c-28 -32 -31 -42 -31 -100 l0 -65 78 0 c69 0 81 3 100 23 19 20 22 35 22 100 l0 77 -69 0 c-66 0 -70 -1 -100 -35z"/>
 <path d="M4830 4145 c0 -25 2 -45 5 -45 5 0 101 66 120 82 5 4 -21 8 -58 8 l-67 0 0 -45z"/>
 <path d="M3220 3765 l-335 -335 -169 190 c-200 225 -196 221 -196 187 0 -20 6 -27 28 -30 l27 -4 -27 -2 -28 -1 0 -100 0 -100 99 0 c86 0 100 2 104 18 4 15 5 15 6 0 0 -9 9 -19 19 -21 16 -4 16 -5 0 -6 -16 -1 -18 -13 -18 -101 l0 -100 100 0 99 0 4 58 3 57 2 -57 2 -57 78 -4 77 -3 -77 -2 -78 -2 0 -95 0 -95 91 0 90 0 -19 28 c-11 15 -34 40 -51 56 l-31 30 345 346 c190 191 345 350 345 353 0 4 -31 7 -70 7 l-69 0 -4 -77 -3 -78 -2 77 -2 77 -57 4 -58 3 58 2 57 2 0 55 c0 30 -1 55 -3 55 -1 0 -153 -151 -337 -335z m218 13 l77 -2 -77 -3 -78 -4 -2 -77 -2 -77 -3 78 -4 77 -57 2 -57 2 58 3 57 4 2 57 2 57 3 -57 4 -58 77 -2z m-210 -210 l77 -2 -77 -3 -78 -4 -2 -77 -2 -77 -3 78 -4 77 -57 2 -57 2 58 3 57 4 2 57 2 57 3 -57 4 -58 77 -2z"/>
 <path d="M1270 4026 c0 -33 2 -35 38 -39 l37 -4 -37 -1 -38 -2 0 -100 0 -100 95 0 95 0 0 38 c0 34 -10 50 -91 140 -50 56 -92 102 -95 102 -2 0 -4 -15 -4 -34z"/>
 <path d="M4380 4005 c-10 -12 -10 -15 4 -15 9 0 16 7 16 15 0 8 -2 15 -4 15 -2 0 -9 -7 -16 -15z"/>
 <path d="M4277 3927 c-75 -58 -77 -61 -77 -103 l0 -43 96 -3 c53 -2 98 -1 100 1 2 2 4 48 4 102 0 93 -1 97 -23 101 -17 3 -44 -11 -100 -55z"/>
 <path d="M1089 3963 c6 -10 47 -56 90 -103 l80 -85 1 103 0 102 -90 0 c-84 0 -90 -1 -81 -17z"/>
 <path d="M2310 3880 l0 -100 99 0 100 0 3 33 c3 27 -6 42 -57 99 -56 64 -63 68 -102 68 l-43 0 0 -100z"/>
 <path d="M4410 3890 c0 -49 2 -90 5 -90 2 0 59 41 126 90 79 58 114 90 101 90 -11 0 -23 -8 -25 -17 -4 -17 -5 -17 -6 0 -1 15 -13 17 -101 17 l-100 0 0 -90z"/>
 <path d="M4105 3789 c-38 -34 -239 -229 -445 -434 l-375 -374 -74 85 -75 84 -97 0 -98 0 -4 -42 -4 -43 -1 42 c-2 41 -3 42 -39 46 l-38 4 38 1 37 2 0 95 0 95 -100 0 c-95 0 -100 -1 -100 -21 0 -25 66 -111 204 -266 l100 -113 53 0 52 0 4 93 3 92 2 -92 2 -93 99 0 100 0 4 48 3 47 2 -47 2 -47 73 -4 72 -3 -72 -2 -73 -2 0 -100 0 -99 73 -4 72 -3 -72 -2 -71 -2 -4 -65 c-3 -64 -2 -67 32 -100 34 -33 40 -35 102 -35 l67 0 4 68 3 67 2 -67 2 -68 60 0 60 0 -140 157 -141 157 358 358 358 358 -67 0 -67 0 -4 -67 -3 -68 -2 67 -2 67 -52 4 -53 3 52 2 52 2 4 53 3 52 2 -52 2 -53 71 0 c56 0 77 4 100 21 28 20 29 24 29 99 l0 79 -47 4 -48 3 48 2 c47 2 47 2 47 37 0 19 -3 35 -7 35 -5 -1 -39 -28 -78 -61z m-257 -431 l67 -2 -67 -3 -68 -4 -2 -67 -2 -67 -3 68 -4 67 -52 2 -52 2 53 3 52 4 2 52 2 52 3 -52 4 -53 67 -2z m-205 -200 l72 -2 -72 -3 -73 -4 -2 -72 -2 -72 -3 73 -4 72 -47 2 -47 2 48 3 47 4 2 47 2 47 3 -47 4 -48 72 -2z"/>
 <path d="M1470 3812 c0 -27 4 -32 25 -32 14 0 25 4 25 8 0 5 -11 19 -25 32 l-25 23 0 -31z"/>
 <path d="M1436 3573 c232 -260 234 -261 234 -241 0 9 -8 19 -17 21 -17 4 -17 5 0 6 15 1 17 13 17 102 l0 100 -106 -2 -107 -2 2 107 2 106 -101 0 -101 0 177 -197z"/>
 <path d="M1470 3670 l0 -100 99 0 c95 0 100 1 104 23 l4 22 2 -22 c0 -14 7 -23 17 -23 20 0 18 3 -85 118 -65 72 -78 82 -108 82 l-33 0 0 -100z"/>
 <path d="M2331 3753 c38 -49 163 -183 170 -183 5 0 9 45 9 100 l0 100 -96 0 c-90 0 -96 -1 -83 -17z"/>
 <path d="M4200 3699 c0 -56 3 -69 13 -62 57 44 157 126 157 129 0 2 -38 4 -85 4 l-85 0 0 -71z"/>
 <path d="M1680 3460 l0 -100 100 0 c74 0 100 3 100 13 0 6 -34 51 -77 100 -55 63 -83 87 -100 87 -23 0 -23 -2 -23 -100z"/>
 <path d="M2592 3456 c134 -149 128 -143 128 -124 0 9 -8 19 -17 21 -17 4 -17 5 0 6 15 1 17 13 17 101 l0 101 -110 -2 -109 -1 91 -102z"/>
 <path d="M1891 3266 l-2 -105 98 -4 98 -3 -97 -2 -97 -2 -4 -37 -4 -38 -1 37 c-2 34 -5 37 -34 41 l-33 4 33 1 32 2 0 95 0 95 -100 0 c-99 0 -100 0 -100 -24 0 -16 48 -77 157 -200 l157 -176 48 0 47 0 4 98 3 97 2 -97 2 -97 88 -4 87 -3 -87 -2 -88 -2 0 -52 c0 -47 4 -58 41 -100 40 -47 42 -48 100 -48 l59 0 0 89 0 89 -186 208 c-103 115 -194 217 -204 228 -17 17 -18 14 -19 -88z"/>
 <path d="M4800 3271 c-68 -22 -120 -65 -297 -243 -200 -202 -232 -246 -233 -321 0 -44 20 -96 44 -116 16 -13 15 -16 -11 -37 l-28 -23 63 -1 62 0 0 100 0 99 -62 4 -63 3 62 2 62 2 4 93 3 92 2 -91 2 -92 45 -4 45 -3 160 160 160 160 0 47 0 47 -92 4 -93 3 92 2 92 2 4 58 3 57 2 -57 2 -58 100 0 100 0 0 38 c0 34 -4 40 -37 56 -42 20 -154 30 -193 17z m-137 -323 l42 -1 -42 -4 c-43 -4 -43 -4 -45 -46 l-1 -42 -4 43 -4 42 -92 2 -92 2 93 3 92 4 2 92 2 92 3 -92 4 -93 42 -2z"/>
 <path d="M5040 3193 c0 -28 3 -32 33 -36 l32 -4 -32 -1 -32 -2 -4 -97 -3 -98 -2 98 -2 97 -100 0 -100 0 0 -43 0 -43 41 4 41 4 374 -373 374 -374 0 97 0 97 -97 4 -98 3 97 2 97 2 4 33 4 32 1 -32 c2 -28 6 -32 35 -36 l32 -4 -32 -1 -33 -2 0 -100 0 -100 96 0 96 0 -7 33 c-4 17 -17 50 -30 72 -13 22 -195 211 -404 420 -355 354 -381 378 -381 348z m243 -245 l32 -1 -32 -4 -33 -4 -2 -97 -2 -97 -3 98 -4 97 -97 2 -97 2 98 3 97 4 2 32 1 32 4 -32 c4 -29 8 -33 36 -35z m210 -210 l32 -1 -32 -4 -33 -4 -2 -97 -2 -97 -3 98 -4 97 -97 2 -97 2 98 3 97 4 2 32 1 32 4 -32 c4 -29 8 -33 36 -35z"/>
 <path d="M2040 2900 c45 -56 50 -57 50 -6 l0 46 -41 0 -41 0 32 -40z"/>
 <path d="M3068 2913 c11 -16 32 -39 46 -52 l26 -24 0 51 0 52 -46 0 -45 0 19 -27z"/>
 <path d="M3150 2876 c0 -62 1 -65 40 -100 37 -33 45 -36 100 -36 l60 0 0 100 0 100 -100 0 -100 0 0 -64z"/>
 <path d="M2310 2823 l0 -83 70 0 c83 0 83 -1 -10 100 l-60 65 0 -82z"/>
 <path d="M2147 2682 c-44 -44 -47 -51 -47 -99 l0 -52 78 -4 77 -3 -77 -2 -77 -2 -4 -77 -3 -78 -2 77 -2 77 -52 4 -53 3 53 2 52 2 0 46 0 46 -47 -40 c-27 -22 -97 -90 -158 -151 l-110 -111 52 0 52 0 4 53 3 52 2 -52 2 -52 78 -4 77 -3 -77 -2 -77 -2 -4 -77 -3 -78 -2 78 -2 77 -55 0 -56 0 -149 -132 -149 -133 -1 -72 0 -73 69 0 c60 0 74 3 100 26 29 24 31 29 31 99 l0 74 -62 4 -63 3 62 2 62 2 4 58 3 57 2 -57 2 -57 78 -4 77 -3 -77 -2 -78 -2 0 -65 c0 -62 1 -65 20 -55 11 6 151 140 312 299 l293 288 -3 82 -4 81 -52 0 c-49 0 -55 -3 -99 -48z"/>
 <path d="M2310 2660 c0 -67 2 -72 33 -100 29 -26 39 -29 99 -30 l67 0 4 73 3 72 2 -72 2 -73 62 0 c57 0 60 1 46 18 -8 9 -47 54 -88 100 l-73 82 -78 0 -79 0 0 -70z"/>
 <path d="M3259 2713 c5 -10 28 -36 50 -58 l41 -39 0 57 0 57 -50 0 c-45 0 -50 -2 -41 -17z"/>
 <path d="M4410 2630 l0 -100 49 0 49 0 7 41 c6 32 2 50 -17 89 -17 34 -21 53 -14 60 7 7 -3 10 -32 10 l-42 0 0 -100z"/>
 <path d="M4247 2519 c-7 -4 -63 -9 -124 -12 -62 -3 -117 -8 -123 -12 -5 -3 -10 -44 -10 -91 l0 -84 100 0 99 0 4 93 3 92 2 -92 2 -91 56 -4 c65 -4 112 18 177 80 33 31 77 98 77 117 0 3 -22 5 -50 5 l-49 0 -4 -72 -3 -73 -2 72 -2 71 -71 4 c-39 2 -76 0 -82 -3z"/>
 <path d="M2390 2513 c1 -5 28 -37 60 -73 l60 -65 0 73 0 72 -60 0 c-33 0 -60 -3 -60 -7z"/>
 <path d="M2520 2443 c1 -72 3 -81 30 -113 l30 -34 -240 -241 -240 -242 0 -61 0 -62 78 0 77 0 233 233 232 232 0 77 0 77 -77 4 -78 3 78 2 77 2 0 63 c0 55 -4 67 -31 100 -30 36 -32 37 -100 37 l-69 0 0 -77z m73 -335 l72 -2 -72 -3 -73 -4 -2 -72 -2 -72 -3 73 -4 72 -57 2 -57 2 58 3 57 4 2 57 2 57 3 -57 4 -58 72 -2z m-210 -210 l72 -2 -72 -3 -73 -4 -2 -72 -2 -72 -3 73 -4 72 -57 2 -57 2 58 3 57 4 2 57 2 57 3 -57 4 -58 72 -2z"/>
 <path d="M3491 2450 c35 -38 64 -70 66 -70 2 0 3 32 3 70 l0 70 -66 0 -65 0 62 -70z"/>
 <path d="M3570 2445 c0 -60 4 -81 20 -103 19 -26 23 -27 99 -24 l79 3 4 60 c3 58 2 61 -37 99 -39 38 -44 40 -103 40 l-62 0 0 -75z"/>
 <path d="M3895 2466 c-116 -44 -115 -43 -115 -98 l0 -48 100 0 100 0 0 85 c0 62 -3 85 -12 84 -7 0 -40 -10 -73 -23z"/>
 <path d="M2730 2378 l0 -57 53 -4 52 -3 -52 -2 -52 -2 -3 -87 -3 -88 105 -117 105 -118 103 0 102 0 0 39 c0 36 -13 53 -186 247 -103 115 -195 218 -205 229 -19 19 -19 19 -19 -37z m253 -270 l42 -1 -42 -4 -43 -4 -2 -97 -2 -97 -3 98 -4 97 -87 2 -87 2 88 3 87 4 2 47 2 47 3 -47 4 -48 42 -2z"/>
 <path d="M5666 2280 c2 -19 3 -65 3 -102 l1 -68 69 0 69 0 26 52 c17 34 26 68 26 99 l0 48 -98 3 -99 3 3 -35z"/>
 <path d="M3624 2302 c3 -5 -8 -22 -24 -37 -27 -26 -30 -35 -30 -92 l0 -63 78 0 c69 0 81 3 100 23 19 20 22 35 22 100 l0 77 -76 0 c-41 0 -73 -4 -70 -8z"/>
 <path d="M3780 2239 c0 -38 4 -68 8 -65 5 3 32 21 61 40 73 50 135 66 289 76 74 4 136 11 139 13 3 3 -60 6 -140 6 -131 1 -146 -1 -150 -16 -4 -17 -5 -17 -6 0 -1 15 -13 17 -101 17 l-100 0 0 -71z"/>
 <path d="M5596 2174 l-59 -64 61 0 62 0 0 65 c0 36 -1 64 -2 64 -2 -1 -30 -30 -62 -65z"/>
 <path d="M3500 2165 l-54 -55 57 0 57 0 0 55 c0 30 -1 55 -3 55 -1 0 -27 -25 -57 -55z"/>
 <path d="M3397 2062 c-35 -35 -37 -42 -37 -100 l0 -62 78 0 c69 0 81 3 100 23 19 20 22 35 22 100 l0 77 -63 0 c-60 0 -65 -2 -100 -38z"/>
 <path d="M3570 2028 l0 -72 70 69 c39 38 70 71 70 72 0 2 -31 3 -70 3 l-70 0 0 -72z"/>
 <path d="M5492 2067 c-30 -30 -32 -38 -32 -100 l0 -67 68 0 c64 0 70 2 100 33 30 30 32 38 32 100 l0 67 -68 0 c-64 0 -70 -2 -100 -33z"/>
 <path d="M5670 2038 l0 -62 60 59 c33 33 60 61 60 62 0 2 -27 3 -60 3 l-60 0 0 -62z"/>
 <path d="M1395 1987 c-27 -23 -63 -52 -80 -64 l-30 -22 88 -1 87 0 0 65 c0 36 -3 65 -7 64 -5 0 -30 -19 -58 -42z"/>
 <path d="M5385 1960 l-59 -60 62 0 62 0 0 60 c0 33 -1 60 -3 60 -1 0 -29 -27 -62 -60z"/>
 <path d="M3290 1955 l-54 -55 57 0 57 0 0 55 c0 30 -1 55 -3 55 -1 0 -27 -25 -57 -55z"/>
 <path d="M3150 1932 c0 -27 4 -32 25 -32 14 0 25 4 25 8 0 5 -11 19 -25 32 l-25 23 0 -31z"/>
 <path d="M5085 1915 c-28 -13 -24 -13 63 -14 50 -1 92 3 92 8 0 23 -109 28 -155 6z"/>
 <path d="M5040 1793 l0 -103 37 0 c24 0 45 8 59 21 l23 21 37 -22 c34 -22 68 -26 171 -21 7 1 28 15 48 32 34 30 35 33 35 101 l0 70 -78 -3 c-42 -2 -82 0 -88 3 -24 16 -33 -11 -37 -107 l-3 -100 -2 102 -2 102 -100 3 -100 3 0 -102z"/>
 <path d="M1256 1881 c-3 -4 -48 -37 -101 -71 -83 -55 -95 -67 -95 -92 l0 -28 100 0 99 0 4 98 3 97 2 -97 2 -97 28 -4 27 -4 -27 -2 c-18 0 -28 -7 -28 -16 0 -8 3 -15 8 -15 7 0 232 167 287 214 l30 25 -62 1 -62 0 -4 -52 -3 -53 -2 53 -2 52 -99 0 c-55 0 -102 -4 -105 -9z"/>
 <path d="M2966 1868 c11 -13 51 -58 89 -100 38 -43 72 -78 77 -78 4 0 8 45 8 100 l0 100 -97 0 -96 0 19 -22z"/>
 <path d="M3150 1790 l0 -101 110 2 c94 1 109 3 99 15 -7 9 -11 46 -10 99 l2 85 -100 0 -101 0 0 -100z"/>
 <path d="M3360 1818 l0 -72 70 69 c39 38 70 71 70 72 0 2 -31 3 -70 3 l-70 0 0 -72z"/>
 <path d="M5460 1828 l0 -62 60 59 c33 33 60 61 60 62 0 2 -27 3 -60 3 l-60 0 0 -62z"/>
 <path d="M4976 1832 c-62 -76 -83 -133 -91 -249 l-7 -103 76 0 76 0 0 100 0 99 -67 4 -68 3 68 2 67 2 0 95 c0 52 -3 95 -7 95 -5 0 -25 -21 -47 -48z"/>
 <path d="M2041 1744 l-43 -49 42 -3 c23 -2 44 -1 47 1 2 3 3 26 1 53 l-3 48 -44 -50z"/>
 <path d="M1010 1716 l-35 -21 33 -3 c39 -4 45 -1 40 25 -3 19 -4 19 -38 -1z"/>
 <path d="M907 1654 l-52 -30 -3 -72 -3 -72 101 0 100 0 0 99 0 99 -45 4 c-36 2 -55 -3 -98 -28z"/>
 <path d="M1060 1580 l0 -100 48 0 47 1 -39 20 -38 21 91 56 c71 44 91 62 91 79 0 22 -3 23 -100 23 l-100 0 0 -100z"/>
 <path d="M1936 1624 c-39 -48 -46 -63 -46 -100 l0 -43 88 -4 87 -3 -87 -2 -88 -2 0 -100 c0 -55 3 -100 8 -100 4 1 22 21 40 46 30 40 170 209 270 325 l34 39 -71 0 -70 0 -4 -82 -3 -83 -2 83 -2 82 -54 0 c-53 0 -54 -1 -100 -56z"/>
 <path d="M3152 1668 c3 -7 18 -19 34 -28 19 -11 41 -40 64 -87 32 -66 37 -72 68 -72 l32 -1 0 100 0 100 -101 0 c-74 0 -100 -3 -97 -12z"/>
 <path d="M3360 1580 l0 -100 55 0 55 0 -22 58 c-25 67 -66 142 -79 142 -5 0 -9 -45 -9 -100z"/>
 <path d="M5040 1581 c0 -86 2 -100 18 -104 16 -4 16 -5 0 -6 -15 -1 -18 -11 -17 -68 l1 -68 14 55 c8 30 19 100 23 155 4 55 11 108 15 118 7 14 3 17 -23 17 l-31 0 0 -99z"/>
 <path d="M790 1590 c-19 -10 -53 -22 -75 -25 -72 -12 -75 -14 -75 -51 l0 -34 100 0 100 0 0 65 c0 36 -3 65 -7 65 -5 -1 -24 -9 -43 -20z"/>
 <path d="M536 1520 c-43 -16 -81 -32 -84 -35 -3 -3 36 -5 86 -5 l92 0 0 35 c0 19 -3 35 -7 35 -5 -1 -44 -14 -87 -30z"/>
 <path d="M1847 1515 l-28 -35 31 0 c28 0 30 3 30 35 0 19 -1 35 -2 35 -2 0 -16 -16 -31 -35z"/>
 <path d="M430 1373 c0 -116 5 -122 63 -86 20 13 59 32 85 42 l47 19 3 60 3 61 -101 3 -100 3 0 -102z"/>
 <path d="M1113 1472 l-53 -3 0 -82 c0 -81 0 -82 31 -99 21 -12 52 -18 99 -18 l69 0 4 73 3 72 2 -72 2 -73 70 0 c39 0 70 4 70 9 0 18 -147 146 -196 171 -38 19 -61 24 -101 22z"/>
 <path d="M640 1409 c0 -54 2 -60 18 -54 9 3 54 9 100 12 l82 6 0 48 0 49 -100 0 -100 0 0 -61z"/>
 <path d="M850 1420 c0 -46 2 -50 28 -55 15 -3 60 -16 100 -28 l72 -24 0 79 0 78 -100 0 -100 0 0 -50z"/>
 <path d="M1746 1380 c-36 -49 -66 -94 -66 -100 0 -6 38 -10 100 -10 l100 0 0 100 0 100 -34 0 c-32 0 -40 -7 -100 -90z"/>
 <path d="M3294 1448 c38 -137 2 -289 -97 -410 -45 -56 -47 -60 -47 -123 l0 -65 72 0 c66 0 75 2 103 29 29 29 30 33 27 100 l-4 70 -66 4 -67 3 68 2 67 2 0 99 c0 95 -1 100 -22 104 l-23 4 23 2 c21 1 22 4 22 101 l0 100 -31 0 c-28 0 -31 -3 -25 -22z"/>
 <path d="M3360 1370 l0 -100 66 0 67 0 -6 83 c-7 115 -9 117 -73 117 l-54 0 0 -100z"/>
 <path d="M4875 1443 c-3 -16 -14 -55 -25 -88 -11 -33 -20 -65 -20 -72 0 -9 29 -13 93 -16 l92 -3 -92 -2 -93 -2 0 -100 0 -100 30 0 c24 0 37 10 70 55 23 31 55 86 73 123 29 61 32 74 29 150 l-4 82 -74 0 c-72 0 -74 0 -79 -27z"/>
 <path d="M344 1417 c-86 -64 -124 -102 -124 -126 0 -20 5 -21 100 -21 l100 0 0 95 c0 52 -4 95 -9 95 -5 0 -35 -20 -67 -43z"/>
 <path d="M166 1243 c-52 -69 -103 -178 -126 -268 -33 -129 -37 -124 78 -128 l97 -3 -96 -2 c-111 -2 -113 -4 -103 -102 10 -108 3 -100 104 -100 103 0 92 -18 92 140 0 50 -1 130 -1 180 l-1 89 -72 4 -73 3 73 2 72 2 0 100 c0 73 -3 100 -12 100 -9 0 -8 3 2 10 8 5 12 12 8 15 -4 4 -23 -15 -42 -42z"/>
 <path d="M1601 1170 c-35 -55 -66 -98 -68 -96 -3 2 -18 31 -33 63 l-28 58 -1 -67 -1 -68 100 0 100 0 0 105 c0 58 -1 105 -3 105 -1 0 -31 -45 -66 -100z"/>
 <path d="M220 1161 l0 -100 28 -4 27 -4 -27 -2 c-28 -1 -28 -1 -28 -73 l0 -73 24 67 c31 89 69 152 128 214 26 28 48 56 48 62 0 8 -31 12 -100 12 l-100 0 0 -99z"/>
 <path d="M1210 1192 c111 -116 162 -239 164 -397 1 -49 -2 -105 -6 -122 l-7 -33 49 0 50 0 0 99 0 100 -42 4 -43 4 43 1 42 2 0 100 0 99 -72 4 -73 3 73 2 72 2 0 75 c0 53 -5 83 -16 100 -15 23 -22 25 -95 25 l-78 0 -4 -62 -3 -63 -2 63 -2 62 -58 0 -57 0 65 -68z"/>
 <path d="M1680 1161 l0 -100 38 -4 37 -4 -37 -1 -38 -2 0 -57 c0 -31 2 -54 4 -52 2 2 31 49 66 104 34 55 79 123 100 151 22 29 36 54 33 58 -4 3 -51 6 -105 6 l-98 0 0 -99z"/>
 <path d="M3360 1161 l0 -99 40 -4 41 -4 18 61 c10 33 22 79 26 103 l7 42 -66 0 -66 0 0 -99z"/>
 <path d="M4500 948 l-305 -308 102 0 102 0 3 103 3 102 102 3 102 3 3 102 3 102 103 3 102 3 0 99 c0 55 -3 99 -7 98 -5 0 -145 -140 -313 -310z"/>
 <path d="M1470 950 l0 -100 83 0 82 0 20 38 c15 28 19 52 17 100 l-3 62 -99 0 -100 0 0 -100z"/>
 <path d="M3360 990 c0 -33 2 -60 4 -60 7 0 66 99 66 110 0 6 -16 10 -35 10 l-35 0 0 -60z"/>
 <path d="M4620 950 l0 -100 27 0 c40 0 173 133 173 172 l0 28 -100 0 -100 0 0 -100z"/>
 <path d="M4830 1028 c0 -20 1 -21 20 -3 11 10 20 20 20 22 0 1 -9 3 -20 3 -14 0 -20 -7 -20 -22z"/>
 <path d="M456 988 c-29 -30 -31 -37 -28 -85 l4 -53 99 0 99 0 0 85 0 85 -71 0 c-67 0 -73 -2 -103 -32z"/>
 <path d="M640 936 l0 -86 100 0 99 0 4 58 3 57 2 -57 2 -57 78 -4 77 -3 -77 -2 -76 -2 -4 -51 c-2 -39 1 -54 15 -67 10 -8 27 -31 38 -49 20 -32 23 -33 84 -33 l63 0 4 75 c3 72 2 76 -31 115 -72 87 -216 166 -339 186 l-42 7 0 -87z"/>
 <path d="M3069 913 l-67 -58 65 -3 c36 -2 67 -1 70 1 2 3 3 30 1 62 l-3 57 -66 -59z"/>
 <path d="M331 790 c-44 -77 -81 -142 -81 -145 0 -3 38 -5 85 -5 l85 0 0 99 0 100 -27 4 -28 4 28 2 c25 1 27 4 27 41 0 22 -2 40 -4 40 -1 0 -40 -63 -85 -140z"/>
 <path d="M430 741 c0 -86 2 -100 18 -104 16 -4 16 -5 0 -6 -11 -1 -18 -9 -18 -21 0 -11 2 -20 4 -20 3 0 39 56 80 125 l75 125 -79 0 -80 0 0 -99z"/>
 <path d="M645 835 c6 -2 26 -6 46 -9 20 -4 61 -22 92 -40 l57 -35 0 45 0 44 -102 -1 c-57 0 -98 -2 -93 -4z"/>
 <path d="M1470 739 l0 -100 48 3 47 3 5 50 c3 28 16 69 28 92 12 23 22 45 22 48 0 3 -34 5 -75 5 l-75 0 0 -101z"/>
 <path d="M2925 799 c-33 -23 -90 -56 -127 -75 -57 -28 -68 -38 -68 -59 0 -25 0 -25 100 -25 l99 0 4 83 3 82 2 -82 2 -83 54 0 c48 0 60 5 113 44 32 24 85 69 118 100 l60 55 -67 1 -67 0 -4 -62 -3 -63 -2 63 -2 62 -77 0 c-75 0 -81 -2 -138 -41z"/>
 <path d="M4410 740 l0 -100 27 0 c40 0 173 133 173 172 l0 28 -100 0 -100 0 0 -100z"/>
 <path d="M4620 818 c0 -20 1 -21 20 -3 11 10 20 20 20 22 0 1 -9 3 -20 3 -14 0 -20 -7 -20 -22z"/>
 <path d="M1060 708 l0 -67 33 -4 32 -4 -32 -1 -33 -2 0 -65 c0 -36 2 -65 4 -65 8 0 66 110 66 124 0 14 -42 111 -59 136 -8 11 -11 -3 -11 -52z"/>
 <path d="M2708 685 c-2 -3 -38 -14 -79 -24 l-74 -20 83 0 c81 -1 82 -1 82 24 0 25 -2 29 -12 20z"/>
 <path d="M220 650 c0 -7 3 -10 7 -7 3 4 3 10 0 14 -4 3 -7 0 -7 -7z"/>
 <path d="M230 632 c-6 -2 -10 -47 -10 -102 l0 -99 58 -4 57 -3 -57 -2 -58 -2 0 -50 c0 -42 3 -50 18 -50 31 0 50 22 120 138 52 87 67 121 64 142 l-4 29 -89 3 c-49 2 -94 2 -99 0z"/>
 <path d="M879 570 c-25 -48 -33 -75 -31 -102 l3 -38 87 0 c85 0 88 1 102 28 10 18 14 50 12 99 l-3 71 -68 4 -68 3 -34 -65z"/>
 <path d="M2465 634 c-16 -2 -58 -7 -92 -10 l-63 -6 0 -93 0 -94 93 -4 92 -3 -92 -2 -92 -2 -4 -62 -3 -63 -2 63 -2 62 -100 0 c-98 0 -100 0 -100 -24 0 -20 14 -29 123 -71 245 -95 301 -110 405 -107 l93 3 -3 71 -3 71 -85 23 c-137 36 -126 23 -119 144 l5 105 2 -103 2 -104 43 7 c90 15 196 48 279 87 85 40 88 42 88 74 l0 34 -100 0 -99 0 -4 -77 -3 -78 -2 78 -2 77 -84 0 c-46 0 -96 2 -112 4 -16 2 -42 2 -59 0z m52 -361 c-2 -27 -3 -5 -3 47 0 52 1 74 3 48 2 -27 2 -69 0 -95z"/>
 <path d="M34 613 c2 -10 7 -29 11 -43 4 -14 18 -51 32 -82 l26 -58 53 0 54 0 0 100 0 100 -91 0 c-81 0 -90 -2 -85 -17z"/>
 <path d="M1317 536 c-26 -52 -47 -97 -47 -100 0 -3 43 -6 95 -6 l95 0 0 100 0 100 -48 0 -49 0 -46 -94z"/>
 <path d="M1470 530 c0 -79 3 -100 14 -100 13 0 56 101 71 168 l7 32 -46 0 -46 0 0 -100z"/>
 <path d="M2940 600 l0 -30 43 26 c23 15 44 28 46 30 2 2 -17 4 -42 4 -46 0 -47 -1 -47 -30z"/>
 <path d="M4159 614 c-7 -8 -48 -38 -91 -66 -72 -47 -78 -54 -78 -85 l0 -33 100 0 100 0 0 100 c0 99 -6 114 -31 84z"/>
 <path d="M4200 531 c0 -72 4 -100 13 -104 7 -3 52 29 100 69 73 63 87 79 87 104 l0 30 -100 0 -100 0 0 -99z"/>
 <path d="M4410 608 c0 -20 1 -21 20 -3 11 10 20 20 20 22 0 1 -9 3 -20 3 -14 0 -20 -7 -20 -22z"/>
 <path d="M1952 610 c-32 -13 -56 -75 -45 -114 14 -48 58 -72 126 -68 l57 4 0 94 0 94 -57 -1 c-32 0 -68 -4 -81 -9z"/>
 <path d="M2100 525 l0 -95 100 0 100 0 0 95 0 95 -100 0 -100 0 0 -95z"/>
 <path d="M815 460 c-15 -29 -15 -30 5 -30 16 0 20 7 20 30 0 17 -2 30 -5 30 -2 0 -11 -13 -20 -30z"/>
 <path d="M3905 460 l-60 -28 68 -1 67 -1 0 30 c0 17 -3 30 -7 29 -5 0 -35 -13 -68 -29z"/>
 <path d="M1223 391 c-17 -20 -61 -58 -97 -82 -48 -32 -65 -50 -66 -66 0 -22 3 -23 100 -23 l100 0 0 105 c0 58 -1 105 -2 105 -2 0 -17 -18 -35 -39z"/>
 <path d="M3778 407 c-24 -10 -79 -29 -123 -42 l-80 -23 -3 -61 -3 -61 100 0 100 0 4 92 3 93 2 -91 c2 -113 7 -115 121 -67 l81 35 0 68 0 68 -80 4 c-61 2 -90 -1 -122 -15z"/>
 <path d="M125 389 c21 -39 51 -69 70 -69 11 0 15 12 15 50 l0 50 -50 0 -51 0 16 -31z"/>
 <path d="M738 320 l-56 -100 79 0 79 0 0 100 c0 98 -1 100 -23 100 -19 0 -33 -19 -79 -100z"/>
 <path d="M850 320 l0 -100 28 0 c22 0 32 9 54 48 15 26 41 71 58 100 l30 52 -85 0 -85 0 0 -100z"/>
 <path d="M1270 320 l0 -100 33 0 c25 0 42 9 69 38 59 62 97 120 91 142 -5 18 -14 20 -99 20 l-94 0 0 -100z"/>
 <path d="M1470 409 c0 -5 5 -7 10 -4 6 3 10 8 10 11 0 2 -4 4 -10 4 -5 0 -10 -5 -10 -11z"/>
 <path d="M2011 415 c3 -2 22 -11 42 -20 36 -15 37 -14 37 5 0 17 -7 20 -42 20 -23 0 -39 -2 -37 -5z"/>
 <path d="M3990 355 l0 -66 88 46 c48 25 98 54 111 64 24 19 24 19 -87 20 l-112 2 0 -66z"/>
 <path d="M2730 291 l0 -71 100 0 100 0 0 50 c0 55 9 49 -105 70 -33 6 -68 14 -77 16 -16 5 -18 -3 -18 -65z"/>
 <path d="M3480 324 c-36 -7 -125 -16 -197 -20 l-133 -7 0 -39 0 -38 99 0 100 0 4 43 4 42 1 -42 2 -43 100 0 100 0 0 60 c0 33 -3 59 -7 59 -5 -1 -37 -7 -73 -15z"/>
 <path d="M2940 271 l0 -51 100 0 100 0 0 39 0 39 -62 6 c-35 4 -80 9 -100 12 l-38 6 0 -51z"/>
 <path d="M1000 240 l-45 -19 48 0 c41 -1 47 2 47 19 0 11 -1 20 -2 19 -2 -1 -23 -9 -48 -19z"/>
 <path d="M888 213 l-38 -4 0 -100 0 -99 31 0 c17 0 62 7 100 17 l69 16 0 84 0 83 -49 0 c-27 0 -55 1 -63 3 -7 2 -30 2 -50 0z"/>
 <path d="M655 173 c-29 -59 -27 -103 6 -135 25 -26 34 -28 103 -28 l76 0 0 100 0 100 -83 0 -83 0 -19 -37z"/>
 <path d="M1060 130 c0 -44 3 -80 8 -80 4 0 48 22 97 48 82 44 90 50 93 80 l3 32 -100 0 -101 0 0 -80z"/>
 <path d="M1270 190 c0 -11 4 -20 8 -20 5 0 17 9 27 20 18 20 17 20 -8 20 -20 0 -27 -5 -27 -20z"/>
 <path d="M2610 194 c166 -53 562 -105 684 -90 l56 7 0 50 0 49 -99 0 -100 0 -4 -52 -3 -53 -2 53 -2 52 -99 0 -100 0 -4 -42 -4 -43 -1 43 -2 42 -99 0 c-95 0 -100 -1 -104 -22 l-4 -23 -2 23 c-1 21 -5 22 -78 21 l-78 -1 45 -14z"/>
 <path d="M3360 160 c0 -57 -3 -56 100 -40 98 16 100 17 100 56 l0 34 -100 0 -100 0 0 -50z"/>
 <path d="M3570 175 c0 -19 2 -35 4 -35 16 0 183 53 191 61 5 5 -29 9 -93 9 l-102 0 0 -35z"/>
 </g>

</svg>